# xmcd
#
# Track frame offsets:
#  182
#  14185
#  30555
#  40637
#  54077
#  68080
#  80577
#  94925
#  105425
#  120302
#
# Disc length: 1753 seconds
#
# Revision: 0
# Processed by: cddbd v1.5.1PL2 Copyright (c) Steve Scherf et al.
# Submitted via: Collectorz.com_Music_Collector 6.10
#
DISCID=7206d70a
DTITLE=Alan Jackson - Here In The Real World
DYEAR=1989
DGENRE=Country
TTITLE0=Ace of Hearts
TTITLE1=Here In The Real World
TTITLE2=Blue Blooded Woman
TTITLE3=Wanted
TTITLE4=Chasin' That Neon Rainbow
TTITLE5=She Don't Get The Blues
TTITLE6=I'd Love You All Over Again
TTITLE7=Dog River Blues
TTITLE8=Home
TTITLE9=Short Sweet Ride
EXTD=
EXTT0=
EXTT1=
EXTT2=
EXTT3=
EXTT4=
EXTT5=
EXTT6=
EXTT7=
EXTT8=
EXTT9=
PLAYORDER=
